Coordinates
version=1
nRows=10
nColumns=63
inDegrees=yes

Units are S.I. units (second, meters, Newtons, ...)
If the header above contains a line with 'inDegrees', this indicates whether rotational values are in degrees (yes) or radians (no).

endheader
time	pelvis_tilt	pelvis_list	pelvis_rotation	pelvis_tx	pelvis_ty	pelvis_tz	hip_flexion_r	hip_adduction_r	hip_rotation_r	knee_angle_r	knee_angle_r_beta	ankle_angle_r	subtalar_angle_r	mtp_angle_r	hip_flexion_l	hip_adduction_l	hip_rotation_l	knee_angle_l	knee_angle_l_beta	ankle_angle_l	subtalar_angle_l	mtp_angle_l	L5_S1_Flex_Ext	L5_S1_Lat_Bending	L5_S1_axial_rotation	L4_L5_Flex_Ext	L4_L5_Lat_Bending	L4_L5_axial_rotation	L3_L4_Flex_Ext	L3_L4_Lat_Bending	L3_L4_axial_rotation	L2_L3_Flex_Ext	L2_L3_Lat_Bending	L2_L3_axial_rotation	L1_L2_Flex_Ext	L1_L2_Lat_Bending	L1_L2_axial_rotation	L1_T12_Flex_Ext	L1_T12_Lat_Bending	L1_T12_axial_rotation	Abs_r3	Abs_r2	Abs_r1	Abs_t1	Abs_t2	neck_flexion	neck_bending	neck_rotation	arm_flex_r	arm_add_r	arm_rot_r	elbow_flex_r	pro_sup_r	wrist_flex_r	wrist_dev_r	arm_flex_l	arm_add_l	arm_rot_l	elbow_flex_l	pro_sup_l	wrist_flex_l	wrist_dev_l
      0.00000000	     -0.15607012	    -16.90010440	    100.55171349	      0.21249231	      0.34934000	      0.65223015	      3.99956712	     -1.49249377	      2.17308119	      5.05696426	      0.08826068	     17.36952101	     -6.84689531	      0.00000000	      2.88494166	      2.56673091	     -0.86294212	      0.96179620	      0.01678651	     19.96755192	     -2.89722089	      0.00000000	      0.59012019	     -0.28313402	      0.41597399	      1.09591220	     -0.37656824	      0.44197237	      0.96950846	     -0.68841205	      0.44197237	      0.67444836	     -0.68841205	      0.36397724	      0.54798561	     -0.57736689	      0.33797887	      0.33719467	     -0.43857459	      0.31198050	      4.21516948	     -3.20286862	      2.31352256	      0.00000000	      0.00000000	     28.14748118	     -0.12350404	     -7.44873375	     24.74649094	     -7.20758539	    104.75767552	     43.26315046	      6.09734000	      2.44238236	      6.85721449	     12.07066897	     -6.19429607	     53.59240822	     44.72879227	     61.38849746	      1.54831002	     19.98607161
      0.02500000	     -0.06295186	    -16.61304113	    101.89910182	      0.20774515	      0.34940325	      0.65251494	      3.34643486	     -1.70757256	      0.32619108	      5.14463235	      0.08979077	     17.22818978	     -7.68372365	      0.00000000	      2.75499154	      2.72207506	      0.63342613	      1.56040162	      0.02723415	     20.29262924	     -3.47517348	      0.00000000	      0.54779859	     -0.18429463	      0.07311836	      1.01731675	     -0.24511186	      0.07768825	      0.89997830	     -0.44809397	      0.07768825	      0.62607900	     -0.44809397	      0.06397856	      0.50868577	     -0.37581362	      0.05940866	      0.31301211	     -0.28547239	      0.05483877	      3.91287051	     -2.08477776	      0.40666236	      0.00000000	      0.00000000	     28.12538887	      0.62836405	     -1.48001122	     25.74523400	     -8.18841365	    106.10197420	     45.55264401	      6.87745862	      1.07094687	      8.88450063	     11.35813106	     -6.23917633	     54.56176306	     45.75005120	     64.95585137	      0.86525440	     17.74071004
      0.05000000	     -0.05355902	    -16.45876555	    102.88664071	      0.20436983	      0.34948693	      0.65297259	      2.99408544	     -1.95259623	     -1.04180067	      5.25913517	      0.09178922	     17.52700510	     -7.67140491	      0.00000000	      2.81029300	      2.91974790	      2.73633440	      2.16761723	      0.03783206	     20.21014085	     -5.36821678	      0.00000000	      0.51930664	     -0.12936008	     -0.21633084	      0.96440437	     -0.17204891	     -0.22985152	      0.85316888	     -0.31452610	     -0.22985152	      0.59351556	     -0.31452610	     -0.18928949	      0.48222815	     -0.26379108	     -0.17576881	      0.29673182	     -0.20037877	     -0.16224813	      3.70935542	     -1.46334713	     -1.20316724	      0.00000000	      0.00000000	     28.11160499	      1.09067718	      2.13940034	     26.14678416	     -8.82857239	    106.40198777	     46.67487456	     11.20171660	      1.18287667	      8.77829825	     10.24151973	     -6.10618982	     52.96636436	     46.66289800	     72.38282916	      2.56221892	     17.60338626
      0.07500000	     -0.04925907	    -16.40083294	    103.91567965	      0.20168256	      0.34967616	      0.65381220	      2.72040717	     -2.11724752	     -1.26832489	      5.13061955	      0.08954620	     17.66582792	     -8.49320042	      0.00000000	      3.08977526	      3.08463229	      3.64749263	      2.84041921	      0.04957467	     20.32475517	     -5.57749819	      0.00000000	      0.50350955	     -0.10486351	     -0.47219224	      0.93506758	     -0.13946847	     -0.50170426	      0.82721584	     -0.25496515	     -0.50170426	      0.57546106	     -0.25496515	     -0.41316821	      0.46755897	     -0.21383768	     -0.38365620	      0.28770536	     -0.16243358	     -0.35414418	      3.59651835	     -1.18623704	     -2.62619159	      0.00000000	      0.00000000	     28.10198490	      1.27304788	      3.68731452	     25.70906942	     -9.23462072	    100.66317393	     45.50326007	     74.25364858	      1.98760755	      1.62973848	      9.83137859	     -6.20995147	     53.06371648	     47.32351743	     76.37231922	      3.79813826	     17.51818187
      0.10000000	     -0.13999493	    -16.39623338	    104.73168331	      0.19995542	      0.34991963	      0.65457485	      2.48297105	     -2.30777262	     -0.82989231	      4.83649470	      0.08441276	     17.73133237	     -9.48371558	      0.00000000	      3.38543911	      3.28074773	      3.88248196	      3.40048572	      0.05934967	     20.42751357	     -5.02436302	      0.00000000	      0.49360862	     -0.11232406	     -0.66860809	      0.91668057	     -0.14939100	     -0.71039610	      0.81094960	     -0.27310472	     -0.71039610	      0.56414529	     -0.27310472	     -0.58503208	      0.45836496	     -0.22905122	     -0.54324407	      0.28204797	     -0.17398997	     -0.50145607	      3.52579701	     -1.27063224	     -3.71859762	      0.00000000	      0.00000000	     28.10403708	      1.42760960	      4.00876969	     24.73664643	     -9.85142885	     97.29118485	     46.29020353	     83.57929572	      0.85581918	      1.12997838	      9.57151608	     -6.35705030	     52.83088867	     47.90493301	     80.21838818	      6.09204496	     18.26022423
      0.12500000	     -0.19618537	    -16.41751885	    105.32782712	      0.19891345	      0.35012963	      0.65542332	      2.38755160	     -2.44538730	     -0.37805133	      4.61445178	      0.08053738	     17.89531307	     -9.91639512	      0.00000000	      3.63817333	      3.41108136	      4.04637797	      3.72723218	      0.06505247	     20.43269544	     -4.62657517	      0.00000000	      0.48729206	     -0.12566714	     -0.79764494	      0.90495008	     -0.16713730	     -0.84749775	      0.80057212	     -0.30554709	     -0.84749775	      0.55692609	     -0.30554709	     -0.69793932	      0.45249941	     -0.25626044	     -0.64808651	      0.27843868	     -0.19465840	     -0.59823370	      3.48067844	     -1.42157184	     -4.43626185	      0.00000000	      0.00000000	     28.11077071	      1.64530559	      3.79782310	     23.55836217	    -10.45170554	     93.98939102	     46.77799451	     86.00588537	      0.12645909	      0.53689105	      9.64687091	     -6.56676390	     53.21842932	     48.44023431	     81.58289183	      7.84971855	     19.48542384
      0.15000000	     -0.24159715	    -16.56440524	    105.78136555	      0.19826327	      0.35002053	      0.65610286	      2.47472079	     -2.60419477	     -0.38926914	      4.48698565	      0.07831267	     18.17937324	     -9.57390040	      0.00000000	      3.95520800	      3.51943586	      3.50353779	      3.86769391	      0.06750399	     20.63988249	     -3.38404634	      0.00000000	      0.49989862	     -0.14526571	     -0.85281931	      0.92836173	     -0.19320340	     -0.90612052	      0.82128345	     -0.35319906	     -0.90612052	      0.57133414	     -0.35319906	     -0.74621690	      0.46420586	     -0.29622584	     -0.69291569	      0.28564207	     -0.22501659	     -0.63961448	      3.57072588	     -1.64327481	     -4.74312516	      0.00000000	      0.00000000	     28.13756848	      1.68962513	      3.19105544	     21.97260824	    -11.05797357	     89.73922191	     47.33227812	     86.51614058	      0.63819049	      1.39332889	      9.69769143	     -6.64362498	     53.30102811	     49.06512236	     83.77583637	      9.14613743	     20.76762365
      0.17500000	     -0.25638135	    -16.74925509	    105.99731013	      0.19794373	      0.34964007	      0.65686128	      2.67562080	     -2.74094706	     -0.62801702	      4.51331652	      0.07877223	     18.36829404	     -8.96767525	      0.00000000	      4.23396837	      3.60422545	      3.00889912	      3.83950165	      0.06701195	     20.77745083	     -2.59053785	      0.00000000	      0.51935433	     -0.15446070	     -0.84315922	      0.96449292	     -0.20543273	     -0.89585667	      0.85324722	     -0.37555574	     -0.89585667	      0.59357006	     -0.37555574	     -0.73776432	      0.48227243	     -0.31497626	     -0.68506687	      0.29675906	     -0.23925962	     -0.63236941	      3.70969602	     -1.74729032	     -4.68939863	      0.00000000	      0.00000000	     28.16797557	      1.61190383	      2.93401810	     20.51779584	    -11.38404862	     85.79615367	     47.72654670	     86.49436382	      1.83723944	      3.81768004	      9.80096037	     -6.65587198	     53.00711817	     50.08842542	     83.70398323	      9.34339878	     23.57200290
      0.20000000	     -0.23453508	    -16.92725580	    106.05708163	      0.19784832	      0.34912186	      0.65777682	      2.97752692	     -2.86789769	     -1.80616911	      4.76919408	      0.08323814	     18.72614652	     -7.08108852	      0.00000000	      4.50285097	      3.63669905	      2.14786100	      3.79732990	      0.06627591	     21.06184412	     -1.49922395	      0.00000000	      0.53575823	     -0.15011511	     -0.81808736	      0.99495661	     -0.19965310	     -0.86921783	      0.88019720	     -0.36498988	     -0.86921783	      0.61231808	     -0.36498988	     -0.71582644	      0.49750509	     -0.30611473	     -0.66469598	      0.30613225	     -0.23252831	     -0.61356552	      3.82686746	     -1.69813215	     -4.54995650	      0.00000000	      0.00000000	     28.19611886	      1.44223931	      3.10210273	     19.54847857	    -11.42053741	     82.26119232	     48.06659214	     86.29318073	      5.01100631	      8.10032041	      9.74275990	     -6.69764595	     51.97976465	     51.46509095	     82.85234337	      8.78601539	     26.50324901
      0.22500000	     -0.33711264	    -17.15125700	    105.87474652	      0.19849635	      0.34852862	      0.65854669	      3.31722552	     -3.04063111	     -1.94508569	      5.01912025	      0.08760017	     18.68243439	     -6.56387448	      0.00000000	      4.64376707	      3.78740491	      1.98569628	      3.49691295	      0.06103264	     21.03063871	     -1.61183186	      0.00000000	      0.55499456	     -0.16782043	     -0.79682290	      1.03068040	     -0.22320117	     -0.84662434	      0.91180057	     -0.40803860	     -0.84662434	      0.63430329	     -0.40803860	     -0.69722004	      0.51536795	     -0.34221943	     -0.64741861	      0.31712389	     -0.25995385	     -0.59761718	      3.96427066	     -1.89841829	     -4.43168994	      0.00000000	      0.00000000	     28.22161715	      1.49532931	      3.19609474	     19.06575871	    -11.42110107	     78.68346567	     49.27680800	     85.68878083	      8.82334233	     13.15027687	      9.33088154	     -7.06497519	     50.28174453	     53.02975031	     82.14702264	      8.53299780	     27.88106527
